<?xml version="1.0" encoding="utf-8"?>
<!-- Generator: Adobe Illustrator 21.1.0, SVG Export Plug-In . SVG Version: 6.00 Build 0)  -->
<svg version="1.1" id="Calque_1" xmlns="http://www.w3.org/2000/svg" xmlns:xlink="http://www.w3.org/1999/xlink" x="0px" y="0px"
	 viewBox="0 0 72 88" style="enable-background:new 0 0 72 88;" xml:space="preserve">
<g>
	<path d="M71.4,22.6l-22-22C49,0.2,48.5,0,48,0H2C0.9,0,0,0.9,0,2v84c0,1.1,0.9,2,2,2h68c1.1,0,2-0.9,2-2V24
		C72,23.5,71.8,23,71.4,22.6z M50,6.8L65.2,22H50V6.8z M4,84V4h42v20c0,1.1,0.9,2,2,2h20v58H4z"/>
</g>
<path d="M28.2,56.4c1.5,0,2.6-0.3,3.1-0.5l-0.4-2.1c-0.5,0.2-1.4,0.4-2.3,0.4c-2.4,0-3.9-1.5-3.9-3.9c0-2.7,1.7-4,3.8-4
	c1,0,1.7,0.2,2.3,0.4l0.6-2.2c-0.5-0.2-1.6-0.5-3-0.5c-3.6,0-6.6,2.3-6.6,6.4C21.9,53.8,24,56.4,28.2,56.4z"/>
<path d="M36,54.2c-1.2,0-2.3-0.4-3-0.8l-0.6,2.2c0.7,0.4,2,0.7,3.4,0.7c3.3,0,4.9-1.7,4.9-3.7c0-1.7-1-2.8-3.1-3.6
	c-1.6-0.6-2.2-0.9-2.2-1.7c0-0.6,0.6-1.2,1.8-1.2c1.2,0,2,0.3,2.5,0.6l0.6-2.2c-0.7-0.3-1.7-0.6-3.1-0.6c-2.8,0-4.6,1.6-4.6,3.6
	c0,1.7,1.3,2.9,3.3,3.6c1.4,0.5,2,0.9,2,1.7C37.9,53.7,37.2,54.2,36,54.2z"/>
<path d="M45.4,54.2c-1.2,0-2.3-0.4-3-0.8l-0.6,2.2c0.7,0.4,2,0.7,3.4,0.7c3.3,0,4.9-1.7,4.9-3.7c0-1.7-1-2.8-3.1-3.6
	c-1.6-0.6-2.2-0.9-2.2-1.7c0-0.6,0.6-1.2,1.8-1.2c1.2,0,2,0.3,2.5,0.6l0.6-2.2c-0.7-0.3-1.7-0.6-3.1-0.6c-2.8,0-4.6,1.6-4.6,3.6
	c0,1.7,1.3,2.9,3.3,3.6c1.4,0.5,2,0.9,2,1.7C47.3,53.7,46.7,54.2,45.4,54.2z"/>
</svg>
