<?xml version="1.0" encoding="utf-8"?>
<!-- Generator: Adobe Illustrator 21.1.0, SVG Export Plug-In . SVG Version: 6.00 Build 0)  -->
<svg version="1.1" id="Calque_1" xmlns="http://www.w3.org/2000/svg" xmlns:xlink="http://www.w3.org/1999/xlink" x="0px" y="0px"
	 viewBox="0 0 72 88" style="enable-background:new 0 0 72 88;" xml:space="preserve">
<g>
	<path d="M71.4,22.6l-22-22C49,0.2,48.5,0,48,0H2C0.9,0,0,0.9,0,2v84c0,1.1,0.9,2,2,2h68c1.1,0,2-0.9,2-2V24
		C72,23.5,71.8,23,71.4,22.6z M50,6.8L65.2,22H50V6.8z M4,84V4h42v20c0,1.1,0.9,2,2,2h20v58H4z"/>
	<path d="M55.5,44H35.7c-0.9-2.9-3.5-5-6.7-5s-5.8,2.1-6.7,5h-5.8c-0.3,0-0.5,0.2-0.5,0.5v3c0,0.3,0.2,0.5,0.5,0.5h5.8
		c0.9,2.9,3.5,5,6.7,5c3.1,0,5.8-2.1,6.7-5h19.8c0.3,0,0.5-0.2,0.5-0.5v-3C56,44.2,55.8,44,55.5,44z M31.9,46.6
		C31.7,48,30.4,49,29,49c-1.7,0-3-1.3-3-3s1.3-3,3-3s3,1.3,3,3C32,46.2,32,46.4,31.9,46.6z"/>
	<path d="M16.5,64h19.8c0.9,2.9,3.5,5,6.7,5s5.8-2.1,6.7-5h5.8c0.3,0,0.5-0.2,0.5-0.5v-3c0-0.3-0.2-0.5-0.5-0.5h-5.8
		c-0.9-2.9-3.5-5-6.7-5c-3.1,0-5.8,2.1-6.7,5H16.5c-0.3,0-0.5,0.2-0.5,0.5v3C16,63.8,16.2,64,16.5,64z M40.1,61.4
		C40.3,60,41.6,59,43,59c1.7,0,3,1.3,3,3s-1.3,3-3,3s-3-1.3-3-3C40,61.8,40,61.6,40.1,61.4z"/>
</g>
</svg>
